<svg xmlns="http://www.w3.org/2000/svg" viewBox="0 0 1004.76 451.29">

  </defs>
  <title>timeline-mockup2</title>
  <g id="timeline">
    <g>
      <line class="cls-1" y1="420.97" x2="877.98" y2="420.97"/>
      <line class="cls-2" y1="420.97" x2="877.98" y2="420.97"/>
    </g>
    <g>
      <line class="cls-1" x1="888.9" y1="420.71" x2="909.16" y2="420.71"/>
      <line class="cls-2" x1="888.9" y1="420.71" x2="909.16" y2="420.71"/>
    </g>
    <g>
      <line class="cls-1" x1="934.48" y1="420.71" x2="954.74" y2="420.71"/>
      <line class="cls-2" x1="934.48" y1="420.71" x2="954.74" y2="420.71"/>
    </g>
    <g>
      <line class="cls-1" x1="984.51" y1="420.71" x2="1004.76" y2="420.71"/>
      <line class="cls-2" x1="984.51" y1="420.71" x2="1004.76" y2="420.71"/>
    </g>
    <g id="bullets">
      <circle class="cls-3" cx="67.09" cy="419.71" r="26.58"/>
      <circle class="cls-3" cx="271.35" cy="419.71" r="26.58"/>
      <circle class="cls-3" cx="478.21" cy="419.71" r="26.58"/>
    </g>
  </g>
  <g id="movies">
    <g id="prisoner">
      <rect data-name="HTML placeholder" class="HTML_placeholder cls-4" x="477.75" y="3" width="368.64" height="146.09"/>
      <line class="cls-6" x1="476.95" y1="397.46" x2="476.95" y2="149.09"/>
    </g>
    <g id="chamber">
      <rect data-name="HTML placeholder" class="HTML_placeholder cls-11" x="271.75" y="184.01" width="368.64" height="146.09"/>
      <line class="cls-6" x1="271.95" y1="393.49" x2="271.95" y2="330.1"/>
    </g>
    <g id="philosopher">
      <rect data-name="HTML placeholder" class="HTML_placeholder cls-4" x="70.15" y="3" width="368.64" height="146.09"/>
      <line class="cls-6" x1="70.35" y1="393.06" x2="70.35" y2="149.09"/>
    </g>
  </g>
</svg>
